<mxfile host="app.diagrams.net" modified="2024-01-07T07:04:16.265Z" agent="Mozilla/5.0 (Windows NT 10.0; Win64; x64) AppleWebKit/537.36 (KHTML, like Gecko) Chrome/120.0.0.0 Safari/537.36 Edg/120.0.0.0" etag="5ftfr8JCw0KGnqsCc4bJ" version="22.1.17" type="github">
  <diagram id="C5RBs43oDa-KdzZeNtuy" name="Page-1">
    <mxGraphModel dx="1806" dy="1725" grid="1" gridSize="10" guides="1" tooltips="1" connect="1" arrows="1" fold="1" page="1" pageScale="1" pageWidth="827" pageHeight="1169" math="0" shadow="0">
      <root>
        <mxCell id="WIyWlLk6GJQsqaUBKTNV-0" />
        <mxCell id="WIyWlLk6GJQsqaUBKTNV-1" parent="WIyWlLk6GJQsqaUBKTNV-0" />
        <mxCell id="_1b3WxYmCp3xxlowfniH-27" value="" style="edgeStyle=orthogonalEdgeStyle;rounded=0;orthogonalLoop=1;jettySize=auto;html=1;" edge="1" parent="WIyWlLk6GJQsqaUBKTNV-1" source="WIyWlLk6GJQsqaUBKTNV-3" target="_1b3WxYmCp3xxlowfniH-20">
          <mxGeometry relative="1" as="geometry" />
        </mxCell>
        <mxCell id="WIyWlLk6GJQsqaUBKTNV-3" value="Do you want to play a blackjack game" style="rounded=1;whiteSpace=wrap;html=1;fontSize=12;glass=0;strokeWidth=1;shadow=0;" parent="WIyWlLk6GJQsqaUBKTNV-1" vertex="1">
          <mxGeometry x="90" y="40" width="230" height="30" as="geometry" />
        </mxCell>
        <mxCell id="_1b3WxYmCp3xxlowfniH-26" value="" style="edgeStyle=orthogonalEdgeStyle;rounded=0;orthogonalLoop=1;jettySize=auto;html=1;entryX=0.5;entryY=0;entryDx=0;entryDy=0;" edge="1" parent="WIyWlLk6GJQsqaUBKTNV-1" source="_1b3WxYmCp3xxlowfniH-19" target="WIyWlLk6GJQsqaUBKTNV-3">
          <mxGeometry relative="1" as="geometry" />
        </mxCell>
        <mxCell id="_1b3WxYmCp3xxlowfniH-19" value="start" style="ellipse;whiteSpace=wrap;html=1;" vertex="1" parent="WIyWlLk6GJQsqaUBKTNV-1">
          <mxGeometry x="145" y="-79" width="120" height="80" as="geometry" />
        </mxCell>
        <mxCell id="_1b3WxYmCp3xxlowfniH-23" value="no" style="edgeStyle=orthogonalEdgeStyle;rounded=0;orthogonalLoop=1;jettySize=auto;html=1;entryX=0.5;entryY=0;entryDx=0;entryDy=0;" edge="1" parent="WIyWlLk6GJQsqaUBKTNV-1" source="_1b3WxYmCp3xxlowfniH-20" target="_1b3WxYmCp3xxlowfniH-28">
          <mxGeometry x="-0.4924" y="15" relative="1" as="geometry">
            <mxPoint x="-20" y="272" as="targetPoint" />
            <Array as="points">
              <mxPoint x="-20" y="200" />
            </Array>
            <mxPoint as="offset" />
          </mxGeometry>
        </mxCell>
        <mxCell id="_1b3WxYmCp3xxlowfniH-25" value="yes&lt;br&gt;" style="edgeStyle=orthogonalEdgeStyle;rounded=0;orthogonalLoop=1;jettySize=auto;html=1;entryX=0.5;entryY=0;entryDx=0;entryDy=0;" edge="1" parent="WIyWlLk6GJQsqaUBKTNV-1" source="_1b3WxYmCp3xxlowfniH-20" target="_1b3WxYmCp3xxlowfniH-30">
          <mxGeometry relative="1" as="geometry">
            <mxPoint x="205" y="312" as="targetPoint" />
          </mxGeometry>
        </mxCell>
        <mxCell id="_1b3WxYmCp3xxlowfniH-20" value="yes to play&lt;br&gt;no to not to play" style="shape=parallelogram;perimeter=parallelogramPerimeter;whiteSpace=wrap;html=1;fixedSize=1;" vertex="1" parent="WIyWlLk6GJQsqaUBKTNV-1">
          <mxGeometry x="85" y="170" width="240" height="60" as="geometry" />
        </mxCell>
        <mxCell id="_1b3WxYmCp3xxlowfniH-28" value="print have a good day&amp;nbsp;" style="rounded=0;whiteSpace=wrap;html=1;" vertex="1" parent="WIyWlLk6GJQsqaUBKTNV-1">
          <mxGeometry x="-80" y="280" width="120" height="60" as="geometry" />
        </mxCell>
        <mxCell id="_1b3WxYmCp3xxlowfniH-34" value="" style="edgeStyle=orthogonalEdgeStyle;rounded=0;orthogonalLoop=1;jettySize=auto;html=1;" edge="1" parent="WIyWlLk6GJQsqaUBKTNV-1" source="_1b3WxYmCp3xxlowfniH-30" target="_1b3WxYmCp3xxlowfniH-33">
          <mxGeometry relative="1" as="geometry" />
        </mxCell>
        <mxCell id="_1b3WxYmCp3xxlowfniH-30" value="&lt;br&gt;&lt;span style=&quot;color: rgb(0, 0, 0); font-family: Helvetica; font-size: 12px; font-style: normal; font-variant-ligatures: normal; font-variant-caps: normal; font-weight: 400; letter-spacing: normal; orphans: 2; text-align: center; text-indent: 0px; text-transform: none; widows: 2; word-spacing: 0px; -webkit-text-stroke-width: 0px; background-color: rgb(251, 251, 251); text-decoration-thickness: initial; text-decoration-style: initial; text-decoration-color: initial; float: none; display: inline !important;&quot;&gt;Randomly choose 2 cards for user and computer&lt;/span&gt;" style="rounded=0;whiteSpace=wrap;html=1;" vertex="1" parent="WIyWlLk6GJQsqaUBKTNV-1">
          <mxGeometry x="120" y="320" width="170" height="60" as="geometry" />
        </mxCell>
        <mxCell id="_1b3WxYmCp3xxlowfniH-39" style="edgeStyle=orthogonalEdgeStyle;rounded=0;orthogonalLoop=1;jettySize=auto;html=1;entryX=0.5;entryY=0;entryDx=0;entryDy=0;" edge="1" parent="WIyWlLk6GJQsqaUBKTNV-1" source="_1b3WxYmCp3xxlowfniH-33" target="_1b3WxYmCp3xxlowfniH-40">
          <mxGeometry relative="1" as="geometry">
            <mxPoint x="200" y="620" as="targetPoint" />
          </mxGeometry>
        </mxCell>
        <mxCell id="_1b3WxYmCp3xxlowfniH-33" value="Show one card of the dealer.&lt;br&gt;show both card and total of user." style="whiteSpace=wrap;html=1;rounded=0;" vertex="1" parent="WIyWlLk6GJQsqaUBKTNV-1">
          <mxGeometry x="80" y="460" width="250" height="70" as="geometry" />
        </mxCell>
        <mxCell id="_1b3WxYmCp3xxlowfniH-41" style="edgeStyle=orthogonalEdgeStyle;rounded=0;orthogonalLoop=1;jettySize=auto;html=1;" edge="1" parent="WIyWlLk6GJQsqaUBKTNV-1" source="_1b3WxYmCp3xxlowfniH-40">
          <mxGeometry relative="1" as="geometry">
            <mxPoint x="205" y="810" as="targetPoint" />
          </mxGeometry>
        </mxCell>
        <mxCell id="_1b3WxYmCp3xxlowfniH-43" value="" style="edgeStyle=orthogonalEdgeStyle;rounded=0;orthogonalLoop=1;jettySize=auto;html=1;" edge="1" parent="WIyWlLk6GJQsqaUBKTNV-1" source="_1b3WxYmCp3xxlowfniH-40" target="_1b3WxYmCp3xxlowfniH-42">
          <mxGeometry relative="1" as="geometry" />
        </mxCell>
        <mxCell id="_1b3WxYmCp3xxlowfniH-40" value="hit or stand&lt;br&gt;" style="shape=parallelogram;perimeter=parallelogramPerimeter;whiteSpace=wrap;html=1;fixedSize=1;" vertex="1" parent="WIyWlLk6GJQsqaUBKTNV-1">
          <mxGeometry x="80" y="585" width="250" height="60" as="geometry" />
        </mxCell>
        <mxCell id="_1b3WxYmCp3xxlowfniH-42" value="" style="rhombus;whiteSpace=wrap;html=1;" vertex="1" parent="WIyWlLk6GJQsqaUBKTNV-1">
          <mxGeometry x="495" y="575" width="165" height="80" as="geometry" />
        </mxCell>
      </root>
    </mxGraphModel>
  </diagram>
</mxfile>
